<mxfile host="app.diagrams.net" agent="Mozilla/5.0 (Macintosh; Intel Mac OS X 10_15_7) AppleWebKit/537.36 (KHTML, like Gecko) Chrome/130.0.0.0 Safari/537.36" version="24.8.3">
  <diagram name="Page-1" id="7X-_89r6zxIHP-1qKZ6E">
    <mxGraphModel dx="1026" dy="576" grid="1" gridSize="10" guides="1" tooltips="1" connect="1" arrows="1" fold="1" page="1" pageScale="1" pageWidth="850" pageHeight="1100" math="0" shadow="0">
      <root>
        <mxCell id="0" />
        <mxCell id="1" parent="0" />
        <mxCell id="Qub_CLvf2EEHjayQxFeO-6" value="" style="rounded=0;whiteSpace=wrap;html=1;fillColor=#E6E6E6;strokeColor=none;" vertex="1" parent="1">
          <mxGeometry x="320" y="40" width="160" height="120" as="geometry" />
        </mxCell>
        <mxCell id="Qub_CLvf2EEHjayQxFeO-1" value="Issuing authority infrastructure" style="rounded=1;whiteSpace=wrap;html=1;fillColor=#D5E8D4;strokeWidth=2;" vertex="1" parent="1">
          <mxGeometry x="340" y="80" width="120" height="60" as="geometry" />
        </mxCell>
        <mxCell id="Qub_CLvf2EEHjayQxFeO-8" value="&lt;b&gt;&lt;font style=&quot;font-size: 14px;&quot;&gt;Issuing authority&lt;/font&gt;&lt;/b&gt;" style="text;strokeColor=none;align=center;fillColor=none;html=1;verticalAlign=middle;whiteSpace=wrap;rounded=0;" vertex="1" parent="1">
          <mxGeometry x="341" y="43" width="120" height="30" as="geometry" />
        </mxCell>
        <mxCell id="Qub_CLvf2EEHjayQxFeO-10" value="" style="rounded=0;whiteSpace=wrap;html=1;fillColor=#E6E6E6;strokeColor=none;" vertex="1" parent="1">
          <mxGeometry x="120" y="200" width="160" height="120" as="geometry" />
        </mxCell>
        <mxCell id="Qub_CLvf2EEHjayQxFeO-11" value="mDL" style="rounded=1;whiteSpace=wrap;html=1;fillColor=#D5E8D4;strokeWidth=2;" vertex="1" parent="1">
          <mxGeometry x="140" y="240" width="120" height="60" as="geometry" />
        </mxCell>
        <mxCell id="Qub_CLvf2EEHjayQxFeO-12" value="&lt;span style=&quot;font-size: 14px;&quot;&gt;&lt;b&gt;mDL holder&lt;/b&gt;&lt;/span&gt;" style="text;strokeColor=none;align=center;fillColor=none;html=1;verticalAlign=middle;whiteSpace=wrap;rounded=0;" vertex="1" parent="1">
          <mxGeometry x="141" y="203" width="120" height="30" as="geometry" />
        </mxCell>
        <mxCell id="Qub_CLvf2EEHjayQxFeO-13" value="" style="rounded=0;whiteSpace=wrap;html=1;fillColor=#E6E6E6;strokeColor=none;" vertex="1" parent="1">
          <mxGeometry x="520" y="200" width="160" height="120" as="geometry" />
        </mxCell>
        <mxCell id="Qub_CLvf2EEHjayQxFeO-14" value="mDL Reader" style="rounded=1;whiteSpace=wrap;html=1;fillColor=#D5E8D4;strokeWidth=2;" vertex="1" parent="1">
          <mxGeometry x="540" y="240" width="120" height="60" as="geometry" />
        </mxCell>
        <mxCell id="Qub_CLvf2EEHjayQxFeO-15" value="&lt;span style=&quot;font-size: 14px;&quot;&gt;&lt;b&gt;mDL verifier&lt;/b&gt;&lt;/span&gt;" style="text;strokeColor=none;align=center;fillColor=none;html=1;verticalAlign=middle;whiteSpace=wrap;rounded=0;" vertex="1" parent="1">
          <mxGeometry x="541" y="203" width="120" height="30" as="geometry" />
        </mxCell>
        <mxCell id="Qub_CLvf2EEHjayQxFeO-16" value="" style="shape=flexArrow;endArrow=classic;startArrow=classic;html=1;rounded=0;exitX=1;exitY=0.5;exitDx=0;exitDy=0;entryX=0;entryY=0.5;entryDx=0;entryDy=0;fillColor=#D4E1F5;" edge="1" parent="1" source="Qub_CLvf2EEHjayQxFeO-11" target="Qub_CLvf2EEHjayQxFeO-14">
          <mxGeometry width="100" height="100" relative="1" as="geometry">
            <mxPoint x="370" y="310" as="sourcePoint" />
            <mxPoint x="470" y="210" as="targetPoint" />
          </mxGeometry>
        </mxCell>
        <mxCell id="Qub_CLvf2EEHjayQxFeO-17" value="" style="shape=flexArrow;endArrow=classic;startArrow=classic;html=1;rounded=0;entryX=0;entryY=1;entryDx=0;entryDy=0;fillColor=#D4E1F5;" edge="1" parent="1" target="Qub_CLvf2EEHjayQxFeO-1">
          <mxGeometry width="100" height="100" relative="1" as="geometry">
            <mxPoint x="250" y="240.00142857142856" as="sourcePoint" />
            <mxPoint x="520" y="255.43" as="targetPoint" />
          </mxGeometry>
        </mxCell>
        <mxCell id="Qub_CLvf2EEHjayQxFeO-18" value="" style="shape=flexArrow;endArrow=classic;startArrow=classic;html=1;rounded=0;fillColor=#D4E1F5;exitX=1;exitY=1;exitDx=0;exitDy=0;" edge="1" parent="1" source="Qub_CLvf2EEHjayQxFeO-1">
          <mxGeometry width="100" height="100" relative="1" as="geometry">
            <mxPoint x="460" y="143.00142857142856" as="sourcePoint" />
            <mxPoint x="541" y="240" as="targetPoint" />
          </mxGeometry>
        </mxCell>
        <mxCell id="Qub_CLvf2EEHjayQxFeO-19" value="&lt;font style=&quot;font-size: 14px;&quot;&gt;&lt;b&gt;2&lt;/b&gt;&lt;/font&gt;" style="text;strokeColor=none;align=center;fillColor=none;html=1;verticalAlign=middle;whiteSpace=wrap;rounded=0;" vertex="1" parent="1">
          <mxGeometry x="371" y="233" width="60" height="30" as="geometry" />
        </mxCell>
        <mxCell id="Qub_CLvf2EEHjayQxFeO-20" value="&lt;span style=&quot;font-size: 14px;&quot;&gt;&lt;b&gt;1&lt;/b&gt;&lt;/span&gt;" style="text;strokeColor=none;align=center;fillColor=none;html=1;verticalAlign=middle;whiteSpace=wrap;rounded=0;" vertex="1" parent="1">
          <mxGeometry x="250" y="160" width="60" height="30" as="geometry" />
        </mxCell>
        <mxCell id="Qub_CLvf2EEHjayQxFeO-21" value="&lt;span style=&quot;font-size: 14px;&quot;&gt;&lt;b&gt;3&lt;/b&gt;&lt;/span&gt;" style="text;strokeColor=none;align=center;fillColor=none;html=1;verticalAlign=middle;whiteSpace=wrap;rounded=0;" vertex="1" parent="1">
          <mxGeometry x="481" y="160" width="60" height="30" as="geometry" />
        </mxCell>
      </root>
    </mxGraphModel>
  </diagram>
</mxfile>
